<?xml version="1.0" standalone="no"?><!-- Generator: Gravit.io --><svg xmlns="http://www.w3.org/2000/svg" xmlns:xlink="http://www.w3.org/1999/xlink" style="isolation:isolate" viewBox="52 157.5 178.761 117.5" width="178.761" height="117.5"><g id="Group"><path d=" M 230.76 163.11 C 230.76 160.01 226.94 157.5 222.22 157.5 L 60.54 157.5 C 55.83 157.5 52 160.01 52 163.11 L 52 269.39 C 52 272.49 55.83 275 60.54 275 L 222.22 275 C 226.94 275 230.76 272.49 230.76 269.39 L 230.76 163.11 Z " fill-rule="evenodd" fill="rgb(168,154,47)"/><path d=" M 71.15 250.83 C 69.62 241.9 80.04 234.38 86.73 234.38 C 95.19 234.38 88.5 250.72 102.3 253.36 C 112.12 253.36 126.81 233.01 132.25 244.5 C 134.9 250.1 138.51 260.17 146.63 255.89 C 155.02 251.46 157.6 245.98 164.6 244.5 C 178.55 241.56 173.95 261.07 188.56 253.36 C 189.36 252.93 208.82 242.43 213.72 244.5" fill="none" vector-effect="non-scaling-stroke" stroke-width="4.02" stroke="rgb(255,255,255)" stroke-linejoin="miter" stroke-linecap="square" stroke-miterlimit="3"/><path d=" M 66.19 224.15 C 68.66 215.48 75.1 207.71 81.79 207.71 C 90.27 207.71 87.29 221.97 97.39 226.68 C 107.23 226.68 121.94 206.33 127.4 217.83 C 130.05 223.42 133.67 233.5 141.8 229.21 C 150.2 224.78 152.78 219.31 159.8 217.83 C 173.77 214.88 181.6 228.84 182 228 C 192.19 215.08 204.09 215.76 209 217.83" fill="none" vector-effect="non-scaling-stroke" stroke-width="4.02" stroke="rgb(255,255,255)" stroke-linejoin="miter" stroke-linecap="square" stroke-miterlimit="3"/><path d=" M 70.15 198.02 C 68.6 189.1 79.17 181.58 85.95 181.58 C 94.53 181.58 92.96 196.45 101.74 200.55 C 114.43 201.71 120.1 181.06 132.11 191.7 C 134.8 197.3 138.46 207.37 146.69 203.08 C 155.2 198.65 157.81 193.18 164.91 191.7 C 179.05 188.75 171.13 212.65 184 203.08 C 184.81 202.66 189.6 196.84 190 196 C 198.27 187.13 209.75 189.63 214.72 191.7" fill="none" vector-effect="non-scaling-stroke" stroke-width="4.02" stroke="rgb(255,255,255)" stroke-linejoin="miter" stroke-linecap="square" stroke-miterlimit="3"/></g></svg>